<svg width="1400" height="900" viewBox="0 0 1400 900" fill="none" xmlns="http://www.w3.org/2000/svg">
  <rect width="1400" height="900" rx="28" fill="#0B0F19"/>
  <rect x="32" y="32" width="1336" height="836" rx="24" fill="#111827" stroke="#263244"/>
  <rect x="32" y="32" width="260" height="836" rx="24" fill="#0F172A"/>
  <text x="72" y="92" fill="#F8FAFC" font-family="Arial" font-size="28" font-weight="700">Zouk</text>
  <text x="72" y="124" fill="#94A3B8" font-family="Arial" font-size="14">Skills &amp; Agents OS</text>
  <rect x="64" y="170" width="190" height="44" rx="12" fill="#1E293B"/>
  <text x="86" y="198" fill="#E2E8F0" font-family="Arial" font-size="15">Dashboard</text>
  <text x="86" y="258" fill="#94A3B8" font-family="Arial" font-size="15">Skills Library</text>
  <text x="86" y="310" fill="#94A3B8" font-family="Arial" font-size="15">Agent Teams</text>
  <text x="86" y="362" fill="#94A3B8" font-family="Arial" font-size="15">Loadouts</text>
  <text x="86" y="414" fill="#94A3B8" font-family="Arial" font-size="15">Security</text>
  <text x="86" y="466" fill="#94A3B8" font-family="Arial" font-size="15">Docs</text>
  <text x="340" y="96" fill="#F8FAFC" font-family="Arial" font-size="34" font-weight="700">Zouk Skills &amp; Agents</text>
  <text x="340" y="130" fill="#94A3B8" font-family="Arial" font-size="16">Commercial AI workflow operating system</text>
  <rect x="340" y="176" width="230" height="130" rx="18" fill="#0F172A" stroke="#334155"/>
  <text x="366" y="218" fill="#94A3B8" font-family="Arial" font-size="14">Skills</text>
  <text x="366" y="266" fill="#F8FAFC" font-family="Arial" font-size="46" font-weight="700">200+</text>
  <rect x="600" y="176" width="230" height="130" rx="18" fill="#0F172A" stroke="#334155"/>
  <text x="626" y="218" fill="#94A3B8" font-family="Arial" font-size="14">Agents</text>
  <text x="626" y="266" fill="#F8FAFC" font-family="Arial" font-size="46" font-weight="700">60+</text>
  <rect x="860" y="176" width="230" height="130" rx="18" fill="#0F172A" stroke="#334155"/>
  <text x="886" y="218" fill="#94A3B8" font-family="Arial" font-size="14">Loadouts</text>
  <text x="886" y="266" fill="#F8FAFC" font-family="Arial" font-size="46" font-weight="700">Core</text>
  <rect x="1120" y="176" width="190" height="130" rx="18" fill="#0F172A" stroke="#334155"/>
  <text x="1146" y="218" fill="#94A3B8" font-family="Arial" font-size="14">Mode</text>
  <text x="1146" y="266" fill="#F8FAFC" font-family="Arial" font-size="38" font-weight="700">Pro</text>
  <rect x="340" y="350" width="470" height="420" rx="20" fill="#0F172A" stroke="#334155"/>
  <text x="370" y="396" fill="#F8FAFC" font-family="Arial" font-size="22" font-weight="700">Recommended Core</text>
  <text x="370" y="438" fill="#CBD5E1" font-family="Arial" font-size="16">workspace-surface-audit</text>
  <text x="370" y="476" fill="#CBD5E1" font-family="Arial" font-size="16">agent-sort</text>
  <text x="370" y="514" fill="#CBD5E1" font-family="Arial" font-size="16">skill-scout</text>
  <text x="370" y="552" fill="#CBD5E1" font-family="Arial" font-size="16">prompt-optimizer</text>
  <text x="370" y="590" fill="#CBD5E1" font-family="Arial" font-size="16">security-scan</text>
  <text x="370" y="628" fill="#CBD5E1" font-family="Arial" font-size="16">plan-orchestrate</text>
  <rect x="850" y="350" width="460" height="420" rx="20" fill="#0F172A" stroke="#334155"/>
  <text x="880" y="396" fill="#F8FAFC" font-family="Arial" font-size="22" font-weight="700">Workflow Routing</text>
  <rect x="880" y="430" width="370" height="54" rx="12" fill="#1E293B"/>
  <text x="900" y="464" fill="#E2E8F0" font-family="Arial" font-size="15">Planning → plan-orchestrate</text>
  <rect x="880" y="502" width="370" height="54" rx="12" fill="#1E293B"/>
  <text x="900" y="536" fill="#E2E8F0" font-family="Arial" font-size="15">Research → deep-research</text>
  <rect x="880" y="574" width="370" height="54" rx="12" fill="#1E293B"/>
  <text x="900" y="608" fill="#E2E8F0" font-family="Arial" font-size="15">Security → security-scan</text>
  <rect x="880" y="646" width="370" height="54" rx="12" fill="#1E293B"/>
  <text x="900" y="680" fill="#E2E8F0" font-family="Arial" font-size="15">Agents → team-builder</text>
</svg>
